# xmcd
#
# Track frame offsets:
#	150
#	16388
#	34170
#	51450
#	63045
#	79073
#	96243
#	110313
#	123943
#	141528
#	159360
#	174470
#
# Disc length: 2535 seconds
#
# Revision: 1
# Processed by: cddbd v1.5.1PL0 Copyright (c) Steve Scherf et al.
# Submitted via: dBpowerAMP V4.0
#
DISCID=9b09e50c
DTITLE=Various Artist - Hot 90's Country
DYEAR=1995
DGENRE=Country
TTITLE0=Blame It On Your Heart - Patty Loveless
TTITLE1=Too Busy In Love - Doug Stone
TTITLE2=Honky Tonk Attitude - Joe Diffie
TTITLE3=I Want You Bad - Collin Raye
TTITLE4=One Of Those Things - Pam Tillis
TTITLE5=I Got You - Shenandoah
TTITLE6=Ain't Necessarily So - Willie Nelson
TTITLE7=Wrong - Waylon Jennings
TTITLE8=Same Ol' Love - Ricky Skaggs
TTITLE9=Leave Him Out Of This - Steve Wariner
TTITLE10=Meet Me In The Middle - Diamond Rio
TTITLE11=What We Really Want - Rosanne Cash
EXTD=
EXTT0=
EXTT1=
EXTT2=
EXTT3=
EXTT4=
EXTT5=
EXTT6=
EXTT7=
EXTT8=
EXTT9=
EXTT10=
EXTT11=
PLAYORDER=
